<svg width="9" height="8" viewBox="0 0 9 8" fill="none" xmlns="http://www.w3.org/2000/svg">
<g opacity="0.6">
<path fill-rule="evenodd" clip-rule="evenodd" d="M0 2.99792H1.87371V7.49482H0V2.99792Z" fill="#EAEADF"/>
<path fill-rule="evenodd" clip-rule="evenodd" d="M2.24854 3.21606C3.78048 2.87929 4.17882 2.11388 4.51587 0.674919C4.761 -0.427258 6.29289 -0.0904999 6.04781 1.04231C5.92527 1.68522 5.86397 1.83829 5.71078 2.38938L7.82484 2.42001C8.71337 2.42001 8.92786 3.64463 8.10057 3.95079C8.52948 4.37938 8.34571 5.08354 7.76354 5.26723C8.19245 5.69583 8.03926 6.43062 7.42651 6.61431C7.82483 7.10415 7.45716 7.86957 6.78311 7.86957H3.87249C3.25974 7.86957 2.76948 7.65524 2.27924 7.37973L2.24854 3.21606Z" fill="#EAEADF"/>
</g>
</svg>
