<svg width="50" height="50" viewBox="0 0 50 50" fill="none" xmlns="http://www.w3.org/2000/svg">
<path fill-rule="evenodd" clip-rule="evenodd" d="M23.091 34.5643C23.5793 34.6594 23.956 35.0718 23.956 35.5693C23.956 36.107 23.5201 36.5429 22.9824 36.5429H21.5478C20.9303 36.5429 20.4363 37.0199 20.4363 37.6161C20.4363 38.2123 20.9303 38.6893 21.5478 38.6893H28.5871C29.2046 38.6893 29.6986 38.2123 29.6986 37.6161C29.6986 37.0199 29.2046 36.5429 28.5871 36.5429H27.1532C26.6151 36.5429 26.179 36.1067 26.179 35.5687C26.179 35.0714 26.5551 34.659 27.043 34.5625C31.5582 33.669 34.9472 29.7584 34.9472 25.2146V23.6779C34.9472 23.0816 34.4533 22.6047 33.8358 22.6047C33.2183 22.6047 32.7243 23.0816 32.7243 23.6779V25.2146C32.7243 29.2689 29.2664 32.6078 25.0675 32.6078C20.8068 32.6078 17.3489 29.2689 17.3489 25.2146V23.6779C17.3489 23.0816 16.8549 22.6047 16.2375 22.6047C15.62 22.6047 15.126 23.0816 15.126 23.6779V25.2146C15.126 29.7616 18.5197 33.6743 23.091 34.5643Z" fill="#EAEADF"/>
<path fill-rule="evenodd" clip-rule="evenodd" d="M30.5614 15.931C30.5614 13.3951 28.104 11.3447 25.0646 11.3447C22.0252 11.3447 19.5032 13.3951 19.5032 15.931V25.8589C19.5032 28.3949 22.0252 30.4452 25.0646 30.4452C28.104 30.4452 30.5614 28.3949 30.5614 25.8589V15.931Z" fill="#EAEADF"/>
<circle cx="25" cy="25" r="24.75" stroke="#EAEADF" stroke-width="0.5"/>
</svg>
