<svg width="18" height="18" viewBox="0 0 18 18" fill="none" xmlns="http://www.w3.org/2000/svg">
<path d="M8.96819 0C7.11678 0 5.40401 0.52169 3.97591 1.42084C3.73394 1.57309 3.49618 1.7259 3.27213 1.89883C3.056 2.06659 2.85778 2.24988 2.65957 2.43546C2.65219 2.44178 2.64059 2.44294 2.63321 2.44983C1.01164 3.96488 0 6.05274 0 8.36409C0 10.6421 0.987914 12.6966 2.56837 14.2054C2.57575 14.2668 2.58102 14.3335 2.58102 14.3794C2.58102 15.7135 1.63949 16.8005 0.443349 16.8149C1.04613 17.0902 1.69288 17.2329 2.34643 17.2349C3.50093 17.2349 4.54103 16.7672 5.38397 16.0318C6.5303 16.5003 7.74445 16.7408 8.96872 16.742C13.9178 16.742 17.9243 12.9873 17.9243 8.36349C17.9243 3.73965 13.9173 0 8.96819 0Z" fill="#EAEADF"/>
</svg>
