<svg width="42" height="42" viewBox="0 0 42 42" fill="none" xmlns="http://www.w3.org/2000/svg">
<circle cx="21" cy="21" r="21" fill="#398FE4"/>
<path d="M26.1876 18.375L28.8485 15.7141C26.993 13.4188 24.3141 12.125 21.4999 12.125C16.3209 12.125 12.1249 16.3242 12.1249 21.5C12.1249 26.679 16.321 30.875 21.4999 30.875C24.3139 30.875 26.828 29.6297 28.5467 27.668L30.8967 29.7251C28.6044 32.3398 25.2503 34 21.4999 34C14.5968 34 9 28.4031 9 21.5C9 14.5969 14.5968 9 21.4999 9C25.2506 9 28.7905 10.8649 31.0829 13.4795L34 10.5623V18.3748L26.1876 18.375Z" fill="#EAEADF"/>
</svg>
