<svg width="23" height="23" viewBox="0 0 23 23" fill="none" xmlns="http://www.w3.org/2000/svg">
<circle cx="11.5" cy="11.5" r="11.5" fill="#13141C"/>
<path d="M5 8.88284V13.6489C5 14.1482 5.19269 14.6272 5.53569 14.9803C5.87869 15.3334 6.3439 15.5317 6.82897 15.5317H12.3994C12.8844 15.5313 13.3494 15.3328 13.6923 14.9798C14.0352 14.6268 14.228 14.1481 14.2284 13.6489V8.88284C14.228 8.38361 14.0352 7.90495 13.6923 7.55194C13.3494 7.19893 12.8844 7.00042 12.3994 7H6.82897C6.3439 7 5.87869 7.19837 5.53569 7.55147C5.19269 7.90457 5 8.38348 5 8.88284Z" fill="#EAEADF"/>
<path d="M17.6207 7.60523L15.5225 9.38772C15.4311 9.46517 15.3573 9.56242 15.3065 9.67255C15.2557 9.78268 15.229 9.90297 15.2285 10.0249V12.4955C15.2285 12.6169 15.2543 12.7368 15.304 12.8469C15.3537 12.9569 15.4262 13.0545 15.5163 13.1327L17.6145 14.9486C17.7216 15.0408 17.852 15.0995 17.9903 15.1181C18.1287 15.1366 18.2694 15.1141 18.3957 15.0532C18.5221 14.9923 18.629 14.8956 18.7039 14.7744C18.7788 14.6532 18.8185 14.5125 18.8184 14.3688V8.18665C18.8184 8.04374 18.779 7.90377 18.7047 7.78307C18.6303 7.66237 18.5242 7.56591 18.3987 7.50496C18.2731 7.444 18.1333 7.42107 17.9955 7.43882C17.8578 7.45658 17.7278 7.51429 17.6207 7.60523Z" fill="#EAEADF"/>
</svg>
