<svg width="14" height="9" viewBox="0 0 14 9" fill="none" xmlns="http://www.w3.org/2000/svg">
<path d="M0 1.88284V6.64889C0 7.14825 0.192695 7.62715 0.535693 7.98026C0.878691 8.33336 1.3439 8.53173 1.82897 8.53173H7.39944C7.88438 8.53131 8.34935 8.3328 8.69226 7.97979C9.03517 7.62678 9.228 7.14812 9.22841 6.64889V1.88284C9.228 1.38361 9.03517 0.904948 8.69226 0.551938C8.34935 0.198928 7.88438 0.000421826 7.39944 0H1.82897C1.3439 0 0.878691 0.19837 0.535693 0.551472C0.192695 0.904573 0 1.38348 0 1.88284Z" fill="#EAEADF"/>
<path d="M12.4259 0.605232L10.3277 2.38772C10.2362 2.46517 10.1625 2.56242 10.1117 2.67255C10.0608 2.78268 10.0342 2.90297 10.0337 3.02489V5.49552C10.0337 5.6169 10.0594 5.73682 10.1091 5.84688C10.1589 5.95694 10.2313 6.05449 10.3215 6.1327L12.4197 7.94864C12.5268 8.04077 12.6571 8.09954 12.7955 8.11807C12.9339 8.13659 13.0745 8.1141 13.2009 8.05322C13.3273 7.99235 13.4342 7.89562 13.5091 7.77439C13.5839 7.65316 13.6236 7.51246 13.6235 7.36881V1.18665C13.6236 1.04374 13.5841 0.903773 13.5098 0.78307C13.4355 0.662368 13.3294 0.565912 13.2038 0.504958C13.0783 0.444004 12.9385 0.421067 12.8007 0.438822C12.663 0.456576 12.533 0.514291 12.4259 0.605232Z" fill="#EAEADF"/>
</svg>
