<svg width="23" height="23" viewBox="0 0 23 23" fill="none" xmlns="http://www.w3.org/2000/svg">
<circle cx="11.5" cy="11.5" r="11.5" fill="#13141C"/>
<path d="M11.0041 6C9.76457 6 8.61789 6.33296 7.6618 6.90684C7.49981 7.00401 7.34064 7.10154 7.19064 7.21191C7.04594 7.31899 6.91324 7.43597 6.78054 7.55441C6.77559 7.55844 6.76783 7.55919 6.76289 7.56359C5.67727 8.53055 5 9.86311 5 11.3383C5 12.7922 5.66139 14.1035 6.71948 15.0665C6.72442 15.1057 6.72795 15.1482 6.72795 15.1776C6.72795 16.029 6.09761 16.7228 5.29681 16.732C5.70037 16.9076 6.13335 16.9987 6.5709 17C7.34381 17 8.04015 16.7015 8.60448 16.2322C9.37193 16.5311 10.1848 16.6847 11.0044 16.6854C14.3177 16.6854 17 14.2891 17 11.3379C17 8.3868 14.3174 6 11.0041 6Z" fill="#EAEADF"/>
</svg>
