<svg width="22" height="13" viewBox="0 0 22 13" fill="none" xmlns="http://www.w3.org/2000/svg">
<ellipse cx="2.6827" cy="5.02384" rx="1.56478" ry="1.61125" fill="#EAEADF"/>
<path d="M2.72394 6.96094C3.83039 6.96094 4.51855 7.62239 4.94099 8.35138C5.55007 9.40248 4.8691 10.6584 3.66529 10.8216C3.40121 10.8573 3.11621 10.8793 2.81448 10.8793C2.51143 10.8793 2.22346 10.8572 1.9555 10.8211C0.731462 10.6563 0.0264883 9.3817 0.638791 8.30909C1.04529 7.597 1.69607 6.96094 2.72394 6.96094Z" fill="#EAEADF"/>
<ellipse cx="18.6827" cy="5.02384" rx="1.56478" ry="1.61125" fill="#EAEADF"/>
<path d="M18.7239 6.96094C19.8304 6.96094 20.5185 7.62239 20.941 8.35138C21.5501 9.40248 20.8691 10.6584 19.6653 10.8216C19.4012 10.8573 19.1162 10.8793 18.8145 10.8793C18.5114 10.8793 18.2235 10.8572 17.9555 10.8211C16.7315 10.6563 16.0265 9.3817 16.6388 8.30909C17.0453 7.597 17.6961 6.96094 18.7239 6.96094Z" fill="#EAEADF"/>
<ellipse cx="10.3548" cy="2.93978" rx="2.54013" ry="2.61556" fill="#EAEADF"/>
<path d="M10.4218 6.08398C12.7891 6.08398 13.9768 7.94918 14.5521 9.47231C14.9813 10.6088 14.3535 11.8058 13.1773 12.1099C12.4606 12.2952 11.5716 12.4448 10.5688 12.4448C9.56058 12.4448 8.65521 12.2936 7.92152 12.1069C6.72458 11.8023 6.07499 10.5896 6.50305 9.43108C7.06297 7.91573 8.19942 6.08398 10.4218 6.08398Z" fill="#EAEADF"/>
</svg>
