<svg width="15" height="14" viewBox="0 0 15 14" fill="none" xmlns="http://www.w3.org/2000/svg">
<path fill-rule="evenodd" clip-rule="evenodd" d="M0 5.52173H2.82609V12.3043H0V5.52173Z" fill="#EAEADF"/>
<path d="M4.33768 5.60657L4.13987 5.65006L4.14136 5.85259L4.18768 12.1326L4.18875 12.2776L4.31519 12.3487C5.06822 12.7719 5.85279 13.1196 6.84075 13.1196H11.2308C12.3262 13.1196 13.0001 11.9862 12.5703 11.0932C13.3259 10.6861 13.5375 9.73942 13.104 9.04151C13.8025 8.63115 14.0387 7.73133 13.6058 7.04525C14.7479 6.32021 14.3049 4.40167 12.8039 4.40007L9.94233 4.35861C9.958 4.30371 9.97303 4.25134 9.98752 4.20082C10.1297 3.70514 10.2206 3.38838 10.3668 2.62184C10.4707 2.13788 10.3883 1.71749 10.1782 1.39459C9.96975 1.07418 9.64667 0.867003 9.29972 0.787263C8.95292 0.70756 8.57354 0.753211 8.25047 0.949219C7.92412 1.14721 7.67336 1.48755 7.56742 1.96227C7.31422 3.043 7.04671 3.825 6.58247 4.40086C6.12634 4.96664 5.45689 5.36053 4.33768 5.60657Z" stroke="#EAEADF" stroke-width="0.5"/>
</svg>
