<svg width="13" height="12" viewBox="0 0 13 12" fill="none" xmlns="http://www.w3.org/2000/svg">
<path fill-rule="evenodd" clip-rule="evenodd" d="M0 4.52173H2.82609V11.3043H0V4.52173Z" fill="#EAEADF"/>
<path fill-rule="evenodd" clip-rule="evenodd" d="M3.39136 4.85074C5.70197 4.34279 6.30279 3.18834 6.81114 1.01797C7.18088 -0.644428 9.49141 -0.1365 9.12175 1.5721C8.93693 2.5418 8.84448 2.77266 8.61342 3.60387L11.802 3.65007C13.1422 3.65007 13.4657 5.49715 12.2179 5.95893C12.8648 6.60536 12.5876 7.66744 11.7096 7.9445C12.3565 8.59094 12.1254 9.69921 11.2012 9.97628C11.802 10.7151 11.2475 11.8696 10.2308 11.8696H5.84075C4.91655 11.8696 4.17709 11.5463 3.43768 11.1308L3.39136 4.85074Z" fill="#EAEADF"/>
</svg>
