<svg width="25" height="25" viewBox="0 0 25 25" fill="none" xmlns="http://www.w3.org/2000/svg">
<path d="M17.1876 9.375L19.8485 6.71406C17.993 4.41879 15.3141 3.125 12.4999 3.125C7.32088 3.125 3.12493 7.3242 3.12493 12.5C3.12493 17.679 7.32097 21.875 12.4999 21.875C15.3139 21.875 17.828 20.6297 19.5467 18.668L21.8967 20.7251C19.6044 23.3398 16.2503 25 12.4999 25C5.59683 25 0 19.4031 0 12.5C0 5.59687 5.59683 0 12.4999 0C16.2506 0 19.7905 1.86487 22.0829 4.47946L25 1.56232V9.37482L17.1876 9.375Z" fill="#EAEADF"/>
</svg>
