<svg width="24" height="14" viewBox="0 0 24 14" fill="none" xmlns="http://www.w3.org/2000/svg">
<path d="M0 3.02922V10.6971C0 11.5005 0.326854 12.271 0.908658 12.8391C1.49046 13.4072 2.27956 13.7263 3.10235 13.7263H12.5511C13.3737 13.7256 14.1624 13.4063 14.7441 12.8383C15.3257 12.2704 15.6528 11.5003 15.6535 10.6971V3.02922C15.6528 2.22603 15.3257 1.45593 14.7441 0.887988C14.1624 0.320046 13.3737 0.000678658 12.5511 0H3.10235C2.27956 0 1.49046 0.319149 0.908658 0.887238C0.326854 1.45533 0 2.22582 0 3.02922Z" fill="#EAEADF"/>
<path d="M21.0773 0.9739L17.5182 3.84166C17.3631 3.96628 17.238 4.12274 17.1518 4.29991C17.0656 4.47709 17.0204 4.67063 17.0195 4.86678V8.84167C17.0195 9.03695 17.0632 9.22987 17.1475 9.40695C17.2318 9.58402 17.3548 9.74096 17.5077 9.86679L21.0668 12.7884C21.2484 12.9366 21.4695 13.0312 21.7042 13.061C21.9389 13.0908 22.1775 13.0546 22.3919 12.9566C22.6063 12.8587 22.7876 12.7031 22.9146 12.508C23.0416 12.313 23.1089 12.0866 23.1088 11.8555V1.90932C23.1088 1.6794 23.0419 1.45421 22.9159 1.26002C22.7898 1.06582 22.6098 0.91064 22.3968 0.812574C22.1838 0.714508 21.9467 0.677605 21.713 0.70617C21.4794 0.734735 21.2589 0.82759 21.0773 0.9739Z" fill="#EAEADF"/>
</svg>
